<svg width="500" height="500" viewBox="0 0 500 500" fill="none" xmlns="http://www.w3.org/2000/svg">
<rect width="500" height="500" fill="#FF800B"/>
<rect x="71" y="27" width="38" height="150" fill="#0D0000"/>
<rect x="71" y="316" width="38" height="150" fill="#040000"/>
<path d="M76.66 224.32C81.14 222.8 85.78 222.04 90.58 222.04C95.38 222.04 99.36 223.06 102.52 225.1C105.68 227.14 107.26 230.26 107.26 234.46C107.26 238.66 105.78 242.2 102.82 245.08C99.86 247.92 96.3 249.34 92.14 249.34C89.1 249.34 87.58 248.18 87.58 245.86C87.58 245.14 87.72 244.38 88 243.58C89.08 243.86 90.06 244 90.94 244C93.7 244 95.78 243.24 97.18 241.72C98.62 240.2 99.34 238.1 99.34 235.42C99.34 232.7 98.58 230.68 97.06 229.36C95.54 228.04 93.42 227.38 90.7 227.38C89.3 227.38 87.6 227.62 85.6 228.1C85.28 233.02 85.12 237.38 85.12 241.18C85.12 251.82 85.54 259.52 86.38 264.28C85.1 264.76 83.74 265 82.3 265C80.86 265 79.6 264.54 78.52 263.62C77.48 262.7 76.96 261.48 76.96 259.96C76.96 258.44 77.16 255.8 77.56 252.04C77.96 248.24 78.16 245.2 78.16 242.92C78.16 235.96 77.66 229.76 76.66 224.32ZM121.349 227.26C121.349 230.26 121.049 234.22 120.449 239.14C119.889 244.06 119.609 247.86 119.609 250.54C119.609 253.22 120.329 255.46 121.769 257.26C123.209 259.02 125.349 259.9 128.189 259.9C129.349 259.9 130.749 259.62 132.389 259.06C134.029 258.5 135.329 257.78 136.289 256.9C136.809 252.46 137.069 246.76 137.069 239.8C137.069 232.8 136.569 227.12 135.569 222.76C136.849 222.28 138.209 222.04 139.649 222.04C141.089 222.04 142.329 222.5 143.369 223.42C144.449 224.34 144.989 225.54 144.989 227.02C144.989 228.5 144.809 231.04 144.449 234.64C144.129 238.24 143.969 242.28 143.969 246.76C143.969 251.2 144.169 255.12 144.569 258.52C138.729 263.32 132.809 265.72 126.809 265.72C122.249 265.72 118.689 264.56 116.129 262.24C113.609 259.88 112.349 256.48 112.349 252.04C112.349 250.64 112.469 248.12 112.709 244.48C112.989 240.8 113.129 238.12 113.129 236.44C113.129 230.4 112.729 225.96 111.929 223.12C113.209 222.64 114.569 222.4 116.009 222.4C117.449 222.4 118.689 222.86 119.729 223.78C120.809 224.7 121.349 225.86 121.349 227.26ZM176.733 223C178.013 222.36 179.353 222.04 180.753 222.04C182.193 222.04 183.353 222.48 184.233 223.36C185.153 224.24 185.613 225.3 185.613 226.54C185.613 227.78 185.433 230.52 185.073 234.76C184.713 238.96 184.533 242.3 184.533 244.78C184.533 252.74 184.893 259.36 185.613 264.64C184.333 265.12 182.893 265.36 181.293 265.36C179.733 265.36 178.513 265.1 177.633 264.58C175.073 263.1 169.093 253.74 159.693 236.5C159.533 238.06 159.453 241.72 159.453 247.48C159.453 253.2 159.893 258.8 160.773 264.28C159.533 264.76 158.193 265 156.753 265C155.313 265 154.133 264.54 153.213 263.62C152.333 262.7 151.893 261.6 151.893 260.32C151.893 259.04 152.073 256.36 152.433 252.28C152.833 248.2 153.033 245.12 153.033 243.04C153.033 235.08 152.653 228.48 151.893 223.24C153.013 222.68 154.653 222.4 156.813 222.4C158.973 222.4 160.493 223.26 161.373 224.98C167.293 237.02 172.953 247.22 178.353 255.58C178.233 247.9 178.173 243.84 178.173 243.4C178.173 235.92 177.693 229.12 176.733 223ZM209.794 241.6C211.874 245.84 214.414 249.78 217.414 253.42C220.454 257.06 223.294 259.28 225.934 260.08C225.934 261.76 225.494 263.06 224.614 263.98C223.734 264.9 222.474 265.36 220.834 265.36C218.674 265.36 216.174 263.86 213.334 260.86C210.534 257.82 208.074 254.42 205.954 250.66C203.834 246.9 202.354 243.6 201.514 240.76C205.474 239.04 208.854 236.38 211.654 232.78C214.454 229.14 215.854 225.56 215.854 222.04C217.574 222.04 219.054 222.34 220.294 222.94C221.574 223.54 222.214 224.5 222.214 225.82C222.214 227.9 220.974 230.42 218.494 233.38C216.014 236.34 213.114 239.08 209.794 241.6ZM201.334 264.28C200.054 264.76 198.694 265 197.254 265C195.814 265 194.554 264.54 193.474 263.62C192.434 262.7 191.914 261.44 191.914 259.84C191.914 258.24 192.114 255.18 192.514 250.66C192.914 246.1 193.114 242.46 193.114 239.74C193.114 232.74 192.694 227.2 191.854 223.12C193.134 222.64 194.494 222.4 195.934 222.4C197.374 222.4 198.614 222.86 199.654 223.78C200.734 224.7 201.274 225.96 201.274 227.56C201.274 229.16 201.074 232.24 200.674 236.8C200.274 241.32 200.074 244.94 200.074 247.66C200.074 254.66 200.494 260.2 201.334 264.28ZM247.166 223.12C248.446 222.64 249.826 222.4 251.306 222.4C254.866 222.4 256.646 224.02 256.646 227.26C256.646 229.02 256.446 231.92 256.046 235.96C255.646 239.96 255.446 244.12 255.446 248.44C255.446 252.76 255.586 256.34 255.866 259.18C256.946 259.3 258.026 259.36 259.106 259.36C264.386 259.36 269.026 258.48 273.026 256.72C273.506 257.8 273.746 259.02 273.746 260.38C273.746 261.74 273.266 262.92 272.306 263.92C271.386 264.88 270.246 265.36 268.886 265.36C266.046 265.36 259.826 265.12 250.226 264.64C249.466 264.6 248.806 264.38 248.246 263.98C247.686 263.54 247.406 263 247.406 262.36C247.406 260.24 247.566 256.66 247.886 251.62C248.246 246.58 248.426 241.94 248.426 237.7C248.426 233.42 248.006 228.56 247.166 223.12ZM305.047 256.72C305.527 257.8 305.767 259.02 305.767 260.38C305.767 261.74 305.287 262.92 304.327 263.92C303.407 264.88 302.267 265.36 300.907 265.36C296.667 265.36 290.027 265.12 280.987 264.64C280.267 264.6 279.627 264.38 279.067 263.98C278.507 263.54 278.227 263 278.227 262.36C278.227 260.24 278.387 256.66 278.707 251.62C279.067 246.58 279.247 241.88 279.247 237.52C279.247 233.12 278.827 228.08 277.987 222.4C280.947 222.64 284.927 222.76 289.927 222.76C294.927 222.76 299.707 222.4 304.267 221.68C304.747 222.56 304.987 223.62 304.987 224.86C304.987 226.06 304.507 227.14 303.547 228.1C302.627 229.02 301.467 229.48 300.067 229.48C298.707 229.48 296.507 229.28 293.467 228.88C290.467 228.48 288.247 228.28 286.807 228.28C286.487 232.32 286.307 236.12 286.267 239.68C288.787 239.92 291.487 240.04 294.367 240.04C297.287 240.04 299.787 239.62 301.867 238.78C302.347 239.66 302.587 240.72 302.587 241.96C302.587 243.16 302.107 244.26 301.147 245.26C300.227 246.22 299.107 246.7 297.787 246.7C296.507 246.7 294.587 246.46 292.027 245.98C289.467 245.46 287.527 245.2 286.207 245.2C286.207 251.52 286.347 256.16 286.627 259.12C288.547 259.28 290.047 259.36 291.127 259.36C296.407 259.36 301.047 258.48 305.047 256.72ZM332.631 245.08L339.051 244.6C341.451 244.6 342.651 245.82 342.651 248.26C342.651 249.66 342.471 251.84 342.111 254.8C341.751 257.76 341.571 260.16 341.571 262C340.571 262.16 338.331 262.76 334.851 263.8C331.411 264.84 328.531 265.36 326.211 265.36C320.531 265.36 316.231 263.6 313.311 260.08C310.431 256.56 308.991 251.76 308.991 245.68C308.991 241.36 309.771 237.4 311.331 233.8C312.931 230.2 315.291 227.28 318.411 225.04C321.531 222.8 324.971 221.68 328.731 221.68C332.531 221.68 335.691 222.56 338.211 224.32C340.771 226.08 342.051 228.46 342.051 231.46C342.051 233.14 341.551 234.56 340.551 235.72C339.591 236.84 338.351 237.4 336.831 237.4C335.311 237.4 334.251 237.22 333.651 236.86C333.771 236.14 333.831 235.42 333.831 234.7C333.831 232.58 333.231 230.86 332.031 229.54C330.831 228.18 329.131 227.5 326.931 227.5C324.731 227.5 322.651 228.24 320.691 229.72C319.531 231.36 318.631 233.6 317.991 236.44C317.351 239.28 317.031 242.04 317.031 244.72C317.031 249.04 317.871 252.6 319.551 255.4C321.231 258.16 323.891 259.54 327.531 259.54C330.211 259.54 332.711 258.76 335.031 257.2C335.191 255.64 335.271 253.4 335.271 250.48C333.671 250.96 332.431 251.2 331.551 251.2C329.351 251.2 328.251 250.04 328.251 247.72C328.251 246.72 328.451 245.66 328.851 244.54C329.931 244.9 331.191 245.08 332.631 245.08ZM358.717 264.28C357.437 264.76 356.077 265 354.637 265C353.197 265 351.937 264.54 350.857 263.62C349.817 262.7 349.297 261.44 349.297 259.84C349.297 258.24 349.497 255.18 349.897 250.66C350.297 246.1 350.497 242.46 350.497 239.74C350.497 232.74 350.077 227.2 349.237 223.12C350.517 222.64 351.877 222.4 353.317 222.4C354.757 222.4 355.997 222.86 357.037 223.78C358.117 224.7 358.657 225.96 358.657 227.56C358.657 229.16 358.457 232.24 358.057 236.8C357.657 241.32 357.457 244.94 357.457 247.66C357.457 254.66 357.877 260.2 358.717 264.28ZM394.136 243.16C394.136 238.4 393.156 234.56 391.196 231.64C389.276 228.68 386.256 227.2 382.136 227.2C379.656 227.2 377.456 228 375.536 229.6C374.456 231.28 373.596 233.54 372.956 236.38C372.356 239.22 372.056 241.92 372.056 244.48C372.056 249.2 373.016 252.98 374.936 255.82C376.856 258.66 379.896 260.08 384.056 260.08C386.336 260.08 388.276 259.16 389.876 257.32C392.716 254 394.136 249.28 394.136 243.16ZM382.016 265.72C376.176 265.72 371.736 263.8 368.696 259.96C365.656 256.08 364.136 251.02 364.136 244.78C364.136 238.5 366.016 233.08 369.776 228.52C373.536 223.96 378.316 221.68 384.116 221.68C389.956 221.68 394.396 223.64 397.436 227.56C400.516 231.48 402.056 236.58 402.056 242.86C402.056 249.14 400.176 254.52 396.416 259C392.656 263.48 387.856 265.72 382.016 265.72ZM432.319 223C433.599 222.36 434.939 222.04 436.339 222.04C437.779 222.04 438.939 222.48 439.819 223.36C440.739 224.24 441.199 225.3 441.199 226.54C441.199 227.78 441.019 230.52 440.659 234.76C440.299 238.96 440.119 242.3 440.119 244.78C440.119 252.74 440.479 259.36 441.199 264.64C439.919 265.12 438.479 265.36 436.879 265.36C435.319 265.36 434.099 265.1 433.219 264.58C430.659 263.1 424.679 253.74 415.279 236.5C415.119 238.06 415.039 241.72 415.039 247.48C415.039 253.2 415.479 258.8 416.359 264.28C415.119 264.76 413.779 265 412.339 265C410.899 265 409.719 264.54 408.799 263.62C407.919 262.7 407.479 261.6 407.479 260.32C407.479 259.04 407.659 256.36 408.019 252.28C408.419 248.2 408.619 245.12 408.619 243.04C408.619 235.08 408.239 228.48 407.479 223.24C408.599 222.68 410.239 222.4 412.399 222.4C414.559 222.4 416.079 223.26 416.959 224.98C422.879 237.02 428.539 247.22 433.939 255.58C433.819 247.9 433.759 243.84 433.759 243.4C433.759 235.92 433.279 229.12 432.319 223Z" fill="black"/>
<rect x="148" y="27" width="296" height="150" fill="#0D0000"/>
<rect x="148" y="27" width="296" height="150" fill="#0D0000"/>
<rect x="148" y="316" width="296" height="150" fill="black"/>
<line x1="150.997" y1="201.5" x2="443.997" y2="199.5" stroke="black"/>
<line x1="147.998" y1="284.5" x2="443.998" y2="283.5" stroke="black"/>
<path d="M231.392 73.184C236.768 71.36 242.336 70.448 248.096 70.448C253.856 70.448 258.632 71.672 262.424 74.12C266.216 76.568 268.112 80.312 268.112 85.352C268.112 90.392 266.336 94.64 262.784 98.096C259.232 101.504 254.96 103.208 249.968 103.208C246.32 103.208 244.496 101.816 244.496 99.032C244.496 98.168 244.664 97.256 245 96.296C246.296 96.632 247.472 96.8 248.528 96.8C251.84 96.8 254.336 95.888 256.016 94.064C257.744 92.24 258.608 89.72 258.608 86.504C258.608 83.24 257.696 80.816 255.872 79.232C254.048 77.648 251.504 76.856 248.24 76.856C246.56 76.856 244.52 77.144 242.12 77.72C241.736 83.624 241.544 88.856 241.544 93.416C241.544 106.184 242.048 115.424 243.056 121.136C241.52 121.712 239.888 122 238.16 122C236.432 122 234.92 121.448 233.624 120.344C232.376 119.24 231.752 117.776 231.752 115.952C231.752 114.128 231.992 110.96 232.472 106.448C232.952 101.888 233.192 98.24 233.192 95.504C233.192 87.152 232.592 79.712 231.392 73.184ZM303.667 71.6C305.203 70.832 306.811 70.448 308.491 70.448C310.219 70.448 311.611 70.976 312.667 72.032C313.771 73.088 314.323 74.36 314.323 75.848C314.323 77.336 314.107 80.624 313.675 85.712C313.243 90.752 313.027 94.76 313.027 97.736C313.027 107.288 313.459 115.232 314.323 121.568C312.787 122.144 311.059 122.432 309.139 122.432C307.267 122.432 305.803 122.12 304.747 121.496C301.675 119.72 294.499 108.488 283.219 87.8C283.027 89.672 282.931 94.064 282.931 100.976C282.931 107.84 283.459 114.56 284.515 121.136C283.027 121.712 281.419 122 279.691 122C277.963 122 276.547 121.448 275.443 120.344C274.387 119.24 273.859 117.92 273.859 116.384C273.859 114.848 274.075 111.632 274.507 106.736C274.987 101.84 275.227 98.144 275.227 95.648C275.227 86.096 274.771 78.176 273.859 71.888C275.203 71.216 277.171 70.88 279.763 70.88C282.355 70.88 284.179 71.912 285.235 73.976C292.339 88.424 299.131 100.664 305.611 110.696C305.467 101.48 305.395 96.608 305.395 96.08C305.395 87.104 304.819 78.944 303.667 71.6ZM343.34 93.92C345.836 99.008 348.884 103.736 352.484 108.104C356.132 112.472 359.54 115.136 362.708 116.096C362.708 118.112 362.18 119.672 361.124 120.776C360.068 121.88 358.556 122.432 356.588 122.432C353.996 122.432 350.996 120.632 347.588 117.032C344.228 113.384 341.276 109.304 338.732 104.792C336.188 100.28 334.412 96.32 333.404 92.912C338.156 90.848 342.212 87.656 345.572 83.336C348.932 78.968 350.612 74.672 350.612 70.448C352.676 70.448 354.452 70.808 355.94 71.528C357.476 72.248 358.244 73.4 358.244 74.984C358.244 77.48 356.756 80.504 353.78 84.056C350.804 87.608 347.324 90.896 343.34 93.92ZM333.188 121.136C331.652 121.712 330.02 122 328.292 122C326.564 122 325.052 121.448 323.756 120.344C322.508 119.24 321.884 117.728 321.884 115.808C321.884 113.888 322.124 110.216 322.604 104.792C323.084 99.32 323.324 94.952 323.324 91.688C323.324 83.288 322.82 76.64 321.812 71.744C323.348 71.168 324.98 70.88 326.708 70.88C328.436 70.88 329.924 71.432 331.172 72.536C332.468 73.64 333.116 75.152 333.116 77.072C333.116 78.992 332.876 82.688 332.396 88.16C331.916 93.584 331.676 97.928 331.676 101.192C331.676 109.592 332.18 116.24 333.188 121.136Z" fill="#403838"/>
<path d="M231.32 371.744C232.856 371.168 234.512 370.88 236.288 370.88C240.56 370.88 242.696 372.824 242.696 376.712C242.696 378.824 242.456 382.304 241.976 387.152C241.496 391.952 241.256 396.944 241.256 402.128C241.256 407.312 241.424 411.608 241.76 415.016C243.056 415.16 244.352 415.232 245.648 415.232C251.984 415.232 257.552 414.176 262.352 412.064C262.928 413.36 263.216 414.824 263.216 416.456C263.216 418.088 262.64 419.504 261.488 420.704C260.384 421.856 259.016 422.432 257.384 422.432C253.976 422.432 246.512 422.144 234.992 421.568C234.08 421.52 233.288 421.256 232.616 420.776C231.944 420.248 231.608 419.6 231.608 418.832C231.608 416.288 231.8 411.992 232.184 405.944C232.616 399.896 232.832 394.328 232.832 389.24C232.832 384.104 232.328 378.272 231.32 371.744ZM294.08 398.096L301.784 397.52C304.664 397.52 306.104 398.984 306.104 401.912C306.104 403.592 305.888 406.208 305.456 409.76C305.024 413.312 304.808 416.192 304.808 418.4C303.608 418.592 300.92 419.312 296.744 420.56C292.616 421.808 289.16 422.432 286.376 422.432C279.56 422.432 274.4 420.32 270.896 416.096C267.44 411.872 265.712 406.112 265.712 398.816C265.712 393.632 266.648 388.88 268.52 384.56C270.44 380.24 273.272 376.736 277.016 374.048C280.76 371.36 284.888 370.016 289.4 370.016C293.96 370.016 297.752 371.072 300.776 373.184C303.848 375.296 305.384 378.152 305.384 381.752C305.384 383.768 304.784 385.472 303.584 386.864C302.432 388.208 300.944 388.88 299.12 388.88C297.296 388.88 296.024 388.664 295.304 388.232C295.448 387.368 295.52 386.504 295.52 385.64C295.52 383.096 294.8 381.032 293.36 379.448C291.92 377.816 289.88 377 287.24 377C284.6 377 282.104 377.888 279.752 379.664C278.36 381.632 277.28 384.32 276.512 387.728C275.744 391.136 275.36 394.448 275.36 397.664C275.36 402.848 276.368 407.12 278.384 410.48C280.4 413.792 283.592 415.448 287.96 415.448C291.176 415.448 294.176 414.512 296.96 412.64C297.152 410.768 297.248 408.08 297.248 404.576C295.328 405.152 293.84 405.44 292.784 405.44C290.144 405.44 288.824 404.048 288.824 401.264C288.824 400.064 289.064 398.792 289.544 397.448C290.84 397.88 292.352 398.096 294.08 398.096ZM343.816 371.6C345.352 370.832 346.96 370.448 348.64 370.448C350.368 370.448 351.76 370.976 352.816 372.032C353.92 373.088 354.472 374.36 354.472 375.848C354.472 377.336 354.256 380.624 353.824 385.712C353.392 390.752 353.176 394.76 353.176 397.736C353.176 407.288 353.608 415.232 354.472 421.568C352.936 422.144 351.208 422.432 349.288 422.432C347.416 422.432 345.952 422.12 344.896 421.496C341.824 419.72 334.648 408.488 323.368 387.8C323.176 389.672 323.08 394.064 323.08 400.976C323.08 407.84 323.608 414.56 324.664 421.136C323.176 421.712 321.568 422 319.84 422C318.112 422 316.696 421.448 315.592 420.344C314.536 419.24 314.008 417.92 314.008 416.384C314.008 414.848 314.224 411.632 314.656 406.736C315.136 401.84 315.376 398.144 315.376 395.648C315.376 386.096 314.92 378.176 314.008 371.888C315.352 371.216 317.32 370.88 319.912 370.88C322.504 370.88 324.328 371.912 325.384 373.976C332.488 388.424 339.28 400.664 345.76 410.696C345.616 401.48 345.544 396.608 345.544 396.08C345.544 387.104 344.968 378.944 343.816 371.6Z" fill="#393030"/>
</svg>
